HIERARCHY
ROOT Hips
{
	OFFSET 0.000000 0.000000 0.000000
	CHANNELS 6 Xposition Yposition Zposition Xrotation Yrotation Zrotation
	JOINT LeftUpLeg_virtual
	{
		OFFSET 0.000000 0.000000 0.000000
		CHANNELS 3 Xrotation Yrotation Zrotation
		JOINT LeftUpLeg
		{
			OFFSET 13.026900 -6.336304 -1.092800
			CHANNELS 3 Xrotation Yrotation Zrotation
			JOINT LeftLeg
			{
				OFFSET 0.524474 -46.096886 9.782700
				CHANNELS 3 Xrotation Yrotation Zrotation
				JOINT LeftFoot
				{
					OFFSET -0.524474 -53.427422 -12.948200
					CHANNELS 3 Xrotation Yrotation Zrotation
					JOINT LeftToeBase
					{
						OFFSET 0.192200 -14.009700 16.364100
						CHANNELS 3 Xrotation Yrotation Zrotation
						JOINT LeftToe_End
						{
							OFFSET -1.784700 -0.561700 9.474800
							CHANNELS 3 Xrotation Yrotation Zrotation
							End Site
							{
								OFFSET 0 0 0
							}
						}
					}
				}
			}
		}
	}
	JOINT RightUpLeg_virtual
	{
		OFFSET 0.000000 0.000000 0.000000
		CHANNELS 3 Xrotation Yrotation Zrotation
		JOINT RightUpLeg
		{
			OFFSET -12.883000 -6.336304 -1.092800
			CHANNELS 3 Xrotation Yrotation Zrotation
			JOINT RightLeg
			{
				OFFSET -0.524587 -46.096825 9.782800
				CHANNELS 3 Xrotation Yrotation Zrotation
				JOINT RightFoot
				{
					OFFSET 0.524587 -53.427383 -12.948300
					CHANNELS 3 Xrotation Yrotation Zrotation
					JOINT RightToeBase
					{
						OFFSET -0.192200 -14.009700 16.364100
						CHANNELS 3 Xrotation Yrotation Zrotation
						JOINT RightToe_End
						{
							OFFSET 1.784700 -0.561700 9.474800
							CHANNELS 3 Xrotation Yrotation Zrotation
							End Site
							{
								OFFSET 0 0 0
							}
						}
					}
				}
			}
		}
	}
	JOINT Spine_virtual
	{
		OFFSET 0.000000 0.000000 0.000000
		CHANNELS 3 Xrotation Yrotation Zrotation
		JOINT Spine
		{
			OFFSET 0.072000 7.257294 -0.789700
			CHANNELS 3 Xrotation Yrotation Zrotation
			JOINT Spine1
			{
				OFFSET 0.000000 12.508769 -0.658067
				CHANNELS 3 Xrotation Yrotation Zrotation
				JOINT Spine1_split
				{
					OFFSET 0.000000 12.508769 -0.658067
					CHANNELS 3 Xrotation Yrotation Zrotation
					JOINT Spine2
					{
						OFFSET 0.000000 12.508769 -0.658067
						CHANNELS 3 Xrotation Yrotation Zrotation
						JOINT Neck_virtual
						{
							OFFSET 0.000000 0.000000 0.000000
							CHANNELS 3 Xrotation Yrotation Zrotation
							JOINT Neck
							{
								OFFSET 0.000000 14.033295 7.520400
								CHANNELS 3 Xrotation Yrotation Zrotation
								JOINT Head
								{
									OFFSET 0.000000 8.198502 5.703100
									CHANNELS 3 Xrotation Yrotation Zrotation
									JOINT HeadTop_End
									{
										OFFSET 0.000000 17.760803 13.332701
										CHANNELS 3 Xrotation Yrotation Zrotation
										End Site
										{
											OFFSET 0 0 0
										}
									}
								}
							}
						}
						JOINT LeftShoulder_virtual
						{
							OFFSET 0.000000 0.000000 0.000000
							CHANNELS 3 Xrotation Yrotation Zrotation
							JOINT LeftShoulder
							{
								OFFSET 6.292450 5.785301 -0.669000
								CHANNELS 3 Xrotation Yrotation Zrotation
								JOINT LeftShoulder_split
								{
									OFFSET 6.292450 5.785301 -0.669000
									CHANNELS 3 Xrotation Yrotation Zrotation
									JOINT LeftArm
									{
										OFFSET 13.907140 -6.093903 1.965100
										CHANNELS 3 Xrotation Yrotation Zrotation
										JOINT LeftForeArm
										{
											OFFSET 34.140198 0.000000 0.000000
											CHANNELS 3 Xrotation Yrotation Zrotation
											JOINT LeftHand
											{
												OFFSET 40.960209 0.000000 0.000000
												CHANNELS 3 Xrotation Yrotation Zrotation
												End Site
												{
													OFFSET 0 0 0
												}
											}
										}
									}
								}
							}
						}
						JOINT RightShoulder_virtual
						{
							OFFSET 0.000000 0.000000 0.000000
							CHANNELS 3 Xrotation Yrotation Zrotation
							JOINT RightShoulder
							{
								OFFSET -6.292450 5.785301 -0.669000
								CHANNELS 3 Xrotation Yrotation Zrotation
								JOINT RightShoulder_split
								{
									OFFSET -6.292450 5.785301 -0.669000
									CHANNELS 3 Xrotation Yrotation Zrotation
									JOINT RightArm
									{
										OFFSET -13.907140 -6.093903 1.965100
										CHANNELS 3 Xrotation Yrotation Zrotation
										JOINT RightForeArm
										{
											OFFSET -34.140198 0.000000 0.000000
											CHANNELS 3 Xrotation Yrotation Zrotation
											JOINT RightHand
											{
												OFFSET -40.960209 0.000000 0.000000
												CHANNELS 3 Xrotation Yrotation Zrotation
												End Site
												{
													OFFSET 0 0 0
												}
											}
										}
									}
								}
							}
						}
					}
				}
			}
		}
	}
}
MOTION
Frames: 4
Frame Time: 0.03333333
82.511986 115.226364 51.915382 0.000000 0.000000 0.000000 4.897675 69.048486 -3.963193 -23.580519 -9.937216 -0.122526 19.293392 0.021396 -8.099459 3.476715 -18.770255 6.037521 0.069388 -2.860552 -0.863381 0.000000 0.000000 0.000000 4.897675 69.048486 -3.963193 1.591988 -13.095607 -0.184502 30.832755 -2.027354 -2.988537 3.185781 -12.567668 11.255371 -18.504596 -0.699729 2.653903 0.000000 0.000000 0.000000 4.897675 69.048486 -3.963193 1.810928 16.400061 -3.144661 0.267655 12.712506 -1.770098 0.000000 0.000000 0.000000 0.000000 0.000000 0.000000 0.303315 12.613129 -2.378698 31.151701 -16.920154 8.990537 -37.861163 -70.544502 -3.831462 0.000000 0.000000 0.000000 0.303315 12.613129 -2.378698 -2.077720 -8.797582 -14.650051 0.000000 0.000000 0.000000 25.493715 -51.832185 -33.182039 0.000043 -68.776535 0.000049 0.000000 0.000000 0.000000 0.303315 12.613129 -2.378698 -8.376129 33.670360 20.651461 0.000000 0.000000 0.000000 6.514669 31.976289 48.490641 0.000002 48.553353 0.000012 0.000000 0.000000 0.000000 
81.776886 115.159164 51.488903 0.000000 0.000000 0.000000 4.286040 67.053654 -3.393546 -23.724619 -9.989765 0.376059 19.508519 1.556515 -8.144978 3.479295 -18.440121 5.671655 0.069551 -2.860530 -0.863371 0.000000 0.000000 0.000000 4.286040 67.053654 -3.393546 1.670842 -12.386698 -1.357487 29.693373 -3.427932 -3.110679 0.552104 -14.751767 9.648302 -14.776064 -1.193745 6.240958 0.000000 0.000000 0.000000 4.286040 67.053654 -3.393546 1.760561 15.550985 -2.800490 0.343534 12.111559 -1.597175 0.000000 0.000000 0.000000 0.000000 0.000000 0.000000 0.355241 12.030037 -2.142363 30.067719 -16.587198 7.620749 -36.544429 -68.821860 -2.824771 0.000000 0.000000 0.000000 0.355241 12.030037 -2.142363 -1.967088 -8.442195 -14.580902 0.000000 0.000000 0.000000 23.731684 -53.081700 -34.699325 0.000009 -66.037329 0.000007 0.000000 0.000000 0.000000 0.355241 12.030037 -2.142363 -8.428599 32.859063 21.486423 0.000000 0.000000 0.000000 5.768028 31.090949 48.692022 -0.000023 48.134423 0.000026 0.000000 0.000000 0.000000 
80.932854 115.402832 51.170704 0.000000 0.000000 0.000000 3.816160 64.609259 -3.164254 -23.358236 -9.708229 1.414354 19.014208 3.246186 -8.146694 3.732919 -18.263448 5.213711 0.069720 -2.860496 -0.863365 0.000000 0.000000 0.000000 3.816160 64.609259 -3.164254 3.553334 -11.133354 -1.546013 25.845733 -0.010727 -3.206873 -0.339224 -24.816615 8.387067 -12.798689 -1.466088 9.510197 0.000000 0.000000 0.000000 3.816160 64.609259 -3.164254 1.649531 14.827808 -2.440334 0.371863 11.541089 -1.378604 0.000000 0.000000 0.000000 0.000000 0.000000 0.000000 0.372755 11.478288 -1.856315 28.899306 -16.213870 6.271608 -35.170659 -67.009675 -1.806511 0.000000 0.000000 0.000000 0.372755 11.478288 -1.856315 -1.822192 -8.117069 -14.348527 0.000000 0.000000 0.000000 21.935728 -54.672174 -36.106562 0.000028 -62.965089 0.000026 0.000000 0.000000 0.000000 0.372755 11.478288 -1.856315 -8.552615 31.896891 22.612287 0.000000 0.000000 0.000000 5.447657 30.142513 48.410868 -0.000014 48.027623 0.000023 0.000000 0.000000 0.000000 
80.059738 115.716438 50.825581 0.000000 0.000000 0.000000 3.495820 61.978188 -2.682518 -22.791692 -9.538021 2.130384 18.080551 5.376004 -8.139086 4.172969 -18.049145 4.702765 0.069884 -2.860514 -0.863355 0.000000 0.000000 0.000000 3.495820 61.978188 -2.682518 4.845141 -13.405649 -1.268941 21.949484 1.741335 -4.566874 -1.356887 -30.295198 6.789641 -13.688333 -1.222022 8.574491 0.000000 0.000000 0.000000 3.495820 61.978188 -2.682518 1.603117 14.245419 -2.571185 0.373124 11.056590 -1.378680 0.000000 0.000000 0.000000 0.000000 0.000000 0.000000 0.360282 11.001746 -1.801466 27.805504 -15.757837 5.758840 -34.237337 -64.938741 -1.557338 0.000000 0.000000 0.000000 0.360282 11.001746 -1.801466 -1.707231 -7.830359 -14.234795 0.000000 0.000000 0.000000 20.800334 -56.184446 -36.603643 0.000006 -60.431280 0.000000 0.000000 0.000000 0.000000 0.360282 11.001746 -1.801466 -8.647023 30.837785 23.797757 0.000000 0.000000 0.000000 5.562969 29.024110 47.757465 -0.000024 48.635281 0.000033 0.000000 0.000000 0.000000 
